<svg width="122" height="40" viewBox="0 0 122 40" fill="none" xmlns="http://www.w3.org/2000/svg">
<path fill-rule="evenodd" clip-rule="evenodd" d="M74.7611 33.2755C74.7611 33.4902 74.7179 33.6373 74.63 33.7195C74.5421 33.8016 74.3807 33.842 74.1429 33.842C73.9038 33.842 73.7409 33.803 73.6587 33.7238C73.5753 33.6445 73.5334 33.5018 73.5334 33.2971C73.5334 33.0822 73.5767 32.9338 73.6632 32.8503C73.7482 32.7681 73.9109 32.7263 74.1517 32.7263C74.388 32.7263 74.5493 32.7667 74.6343 32.8474C74.7193 32.9267 74.7611 33.0693 74.7611 33.2755ZM48.0519 37.6346C48.0519 37.7051 48.0506 37.7658 48.0462 37.8148C48.0419 37.8637 48.0347 37.907 48.0261 37.9415C48.0188 37.9775 48.0073 38.0079 47.993 38.0338C47.9785 38.0584 47.957 38.0872 47.9252 38.1189C47.8949 38.1507 47.8344 38.1924 47.7465 38.2429C47.6572 38.2919 47.5492 38.3409 47.4209 38.3871C47.2927 38.4317 47.147 38.4707 46.9828 38.5009C46.8185 38.5312 46.6399 38.5471 46.4483 38.5471C46.0751 38.5471 45.738 38.4893 45.4367 38.374C45.1356 38.2588 44.8791 38.0857 44.6688 37.8565C44.457 37.6273 44.2955 37.342 44.1831 36.9974C44.0707 36.6543 44.0145 36.255 44.0145 35.7996C44.0145 35.3354 44.0766 34.9231 44.2005 34.5627C44.3244 34.2023 44.4973 33.8996 44.7191 33.6545C44.9411 33.4095 45.2076 33.225 45.5189 33.0981C45.8286 32.9713 46.1716 32.9079 46.5462 32.9079C46.6975 32.9079 46.8432 32.9208 46.9843 32.9469C47.1255 32.9713 47.2551 33.0045 47.3747 33.0462C47.4943 33.0867 47.601 33.1341 47.6976 33.1876C47.7927 33.2422 47.8604 33.2884 47.8978 33.3259C47.9353 33.3648 47.9613 33.3966 47.9756 33.4211C47.9901 33.4469 48.0016 33.4786 48.0088 33.5176C48.0175 33.558 48.0247 33.6042 48.029 33.6575C48.0333 33.7107 48.0347 33.7757 48.0347 33.8549C48.0347 33.9385 48.0318 34.0106 48.0261 34.0697C48.0204 34.1289 48.0102 34.1765 47.9973 34.2125C47.9828 34.2485 47.9656 34.2758 47.9468 34.2917C47.9266 34.3091 47.9035 34.3177 47.8791 34.3177C47.8373 34.3177 47.7841 34.2932 47.7191 34.2441C47.6543 34.1951 47.5707 34.1404 47.4685 34.0797C47.3661 34.0192 47.2437 33.9645 47.101 33.9154C46.9598 33.8664 46.7913 33.842 46.5938 33.842C46.3776 33.842 46.1846 33.8866 46.0146 33.9746C45.8445 34.064 45.7004 34.1894 45.5808 34.3537C45.4612 34.5194 45.3705 34.7184 45.3085 34.9519C45.2466 35.184 45.2162 35.4478 45.2162 35.7404C45.2162 36.0604 45.2495 36.3386 45.3157 36.5736C45.382 36.8071 45.4756 37.0017 45.5982 37.1531C45.7192 37.3044 45.8676 37.4183 46.0405 37.4918C46.2134 37.5668 46.4079 37.6042 46.6241 37.6042C46.8201 37.6042 46.99 37.5813 47.1341 37.5351C47.2768 37.4889 47.3992 37.4371 47.5016 37.3823C47.6053 37.3261 47.6889 37.2756 47.7551 37.2309C47.8215 37.1862 47.8718 37.1631 47.9094 37.1631C47.9368 37.1631 47.9597 37.169 47.9756 37.1804C47.993 37.1919 48.0073 37.2137 48.0188 37.2482C48.029 37.2814 48.0376 37.329 48.0433 37.3895C48.0492 37.4515 48.0519 37.5322 48.0519 37.6346ZM52.5938 36.3948C52.5938 36.7148 52.552 37.0074 52.467 37.2726C52.382 37.5365 52.2552 37.7642 52.0823 37.956C51.9108 38.1477 51.6962 38.2948 51.4368 38.4C51.1774 38.5038 50.8749 38.5557 50.529 38.5557C50.1932 38.5557 49.9022 38.5095 49.6544 38.4159C49.4065 38.3236 49.2004 38.1881 49.0377 38.0108C48.8748 37.8334 48.7538 37.6158 48.6745 37.3563C48.5952 37.0983 48.5564 36.8028 48.5564 36.4698C48.5564 36.1498 48.5995 35.8558 48.6847 35.5906C48.771 35.3238 48.8993 35.096 49.0722 34.9058C49.2436 34.717 49.4584 34.57 49.7163 34.4648C49.9727 34.361 50.2754 34.3091 50.6212 34.3091C50.9599 34.3091 51.2523 34.3551 51.5002 34.446C51.7481 34.5382 51.9527 34.6722 52.114 34.8496C52.2769 35.0269 52.3965 35.2445 52.4756 35.504C52.5549 35.762 52.5938 36.0591 52.5938 36.3948ZM51.4599 35.9235C51.49 36.0792 51.5045 36.2506 51.5045 36.4367C51.5045 36.6371 51.4857 36.8143 51.4497 36.9714C51.4123 37.1271 51.3561 37.2597 51.2798 37.3708C51.2034 37.4803 51.1053 37.5639 50.9873 37.6216C50.8676 37.6792 50.7279 37.708 50.5665 37.708C50.3907 37.708 50.2437 37.6763 50.1255 37.6129C50.006 37.5496 49.9122 37.4601 49.8431 37.3447C49.774 37.2295 49.7235 37.094 49.6918 36.9369C49.6616 36.7812 49.6458 36.6096 49.6458 36.4238C49.6458 36.2234 49.6644 36.046 49.7033 35.8889C49.7407 35.7332 49.7985 35.5992 49.8748 35.4882C49.9512 35.3771 50.0491 35.2921 50.1673 35.2345C50.2869 35.1767 50.4252 35.1479 50.5838 35.1479C50.7623 35.1479 50.9094 35.1797 51.0276 35.2445C51.1443 35.3093 51.2379 35.4002 51.3085 35.5156C51.3806 35.6309 51.4295 35.7663 51.4599 35.9235ZM57.0348 38.3177C57.0348 38.3452 57.0261 38.3697 57.0089 38.3914C56.993 38.4129 56.9641 38.4302 56.9253 38.4447C56.885 38.4576 56.8302 38.4691 56.761 38.4764C56.6918 38.4836 56.6068 38.4864 56.5059 38.4864C56.4008 38.4864 56.3143 38.4836 56.2452 38.4764C56.176 38.4691 56.1212 38.4576 56.0809 38.4447C56.042 38.4302 56.0132 38.4129 55.9973 38.3914C55.9801 38.3697 55.9713 38.3452 55.9713 38.3177V36.1686C55.9713 35.9854 55.9584 35.8413 55.931 35.7375C55.9051 35.6323 55.8661 35.543 55.8158 35.4694C55.7653 35.3945 55.699 35.3368 55.6198 35.295C55.539 35.2547 55.4468 35.2345 55.3403 35.2345C55.2048 35.2345 55.0693 35.2835 54.9311 35.383C54.7941 35.4809 54.65 35.6251 54.5016 35.8125V38.3177C54.5016 38.3452 54.4929 38.3697 54.4757 38.3914C54.4598 38.4129 54.431 38.4302 54.3892 38.4447C54.3488 38.4576 54.2942 38.4691 54.2278 38.4764C54.1601 38.4836 54.0737 38.4864 53.97 38.4864C53.8662 38.4864 53.7797 38.4836 53.712 38.4764C53.6458 38.4691 53.591 38.4576 53.5506 38.4447C53.5088 38.4302 53.48 38.4129 53.4641 38.3914C53.4469 38.3697 53.4382 38.3452 53.4382 38.3177V34.5469C53.4382 34.5194 53.4455 34.495 53.4598 34.4734C53.4727 34.4517 53.4987 34.4344 53.5348 34.4199C53.5722 34.407 53.6184 34.3955 53.6759 34.3882C53.7337 34.3811 53.8071 34.3782 53.8936 34.3782C53.9843 34.3782 54.0579 34.3811 54.1168 34.3882C54.176 34.3955 54.2221 34.407 54.2552 34.4199C54.287 34.4344 54.31 34.4517 54.3244 34.4734C54.3388 34.495 54.3461 34.5194 54.3461 34.5469V34.9822C54.5534 34.7574 54.7653 34.5901 54.9814 34.4777C55.1962 34.3653 55.4209 34.3091 55.6543 34.3091C55.9108 34.3091 56.1269 34.3508 56.3027 34.4358C56.4785 34.5194 56.6197 34.6348 56.7293 34.7803C56.8374 34.9245 56.9151 35.0947 56.9627 35.2892C57.0103 35.4838 57.0348 35.7173 57.0348 35.9898V38.3177ZM61.6487 38.3914C61.6659 38.3697 61.6746 38.3452 61.6746 38.3177V35.9898C61.6746 35.7173 61.6501 35.4838 61.6025 35.2892C61.555 35.0947 61.4772 34.9245 61.3691 34.7803C61.2595 34.6348 61.1184 34.5194 60.9426 34.4358C60.7667 34.3508 60.5506 34.3091 60.2941 34.3091C60.0607 34.3091 59.836 34.3653 59.6212 34.4777C59.4051 34.5901 59.1932 34.7574 58.9859 34.9822V34.5469C58.9859 34.5194 58.9786 34.495 58.9642 34.4734C58.9499 34.4517 58.9268 34.4344 58.8951 34.4199C58.862 34.407 58.8158 34.3955 58.7567 34.3882C58.6977 34.3811 58.6241 34.3782 58.5334 34.3782C58.4469 34.3782 58.3735 34.3811 58.3158 34.3882C58.2582 34.3955 58.212 34.407 58.1746 34.4199C58.1386 34.4344 58.1125 34.4517 58.0996 34.4734C58.0853 34.495 58.0781 34.5194 58.0781 34.5469V38.3177C58.0781 38.3452 58.0867 38.3697 58.1039 38.3914C58.1198 38.4129 58.1486 38.4302 58.1904 38.4447C58.2308 38.4576 58.2856 38.4691 58.3518 38.4764C58.4195 38.4836 58.506 38.4864 58.6098 38.4864C58.7135 38.4864 58.7999 38.4836 58.8677 38.4764C58.934 38.4691 58.9887 38.4576 59.029 38.4447C59.0709 38.4302 59.0996 38.4129 59.1155 38.3914C59.1327 38.3697 59.1414 38.3452 59.1414 38.3177V35.8125C59.2898 35.6251 59.4339 35.4809 59.5709 35.383C59.7091 35.2835 59.8446 35.2345 59.9801 35.2345C60.0866 35.2345 60.1788 35.2547 60.2596 35.295C60.3388 35.3368 60.4051 35.3945 60.4556 35.4694C60.506 35.543 60.5449 35.6323 60.5708 35.7375C60.5982 35.8413 60.6111 35.9854 60.6111 36.1686V38.3177C60.6111 38.3452 60.6199 38.3697 60.6371 38.3914C60.653 38.4129 60.6818 38.4302 60.7207 38.4447C60.761 38.4576 60.8159 38.4691 60.885 38.4764C60.9541 38.4836 61.0406 38.4864 61.1458 38.4864C61.2466 38.4864 61.3316 38.4836 61.4009 38.4764C61.47 38.4691 61.5248 38.4576 61.5651 38.4447C61.6039 38.4302 61.6328 38.4129 61.6487 38.3914ZM66.1934 36.3243C66.1934 36.4539 66.1646 36.5491 66.1069 36.611C66.0493 36.6731 65.97 36.7048 65.8676 36.7048H63.5738C63.5738 36.8648 63.5924 37.009 63.6314 37.14C63.6688 37.2699 63.7293 37.3808 63.8115 37.4716C63.8951 37.5625 64.0016 37.6316 64.1328 37.6792C64.264 37.7268 64.4196 37.7513 64.6026 37.7513C64.7885 37.7513 64.9513 37.7384 65.0925 37.711C65.2323 37.6835 65.3547 37.6547 65.457 37.6216C65.5593 37.5884 65.6444 37.5596 65.7121 37.5322C65.7799 37.5047 65.8345 37.4918 65.8764 37.4918C65.9023 37.4918 65.9238 37.4961 65.9397 37.5063C65.9571 37.5163 65.9714 37.5337 65.9829 37.5596C65.9931 37.5841 66.0017 37.6201 66.006 37.6663C66.0103 37.7123 66.0117 37.7715 66.0117 37.8406C66.0117 37.9027 66.0103 37.956 66.0074 37.9993C66.0046 38.0425 66.0003 38.08 65.9945 38.1103C65.9888 38.1419 65.9815 38.1679 65.97 38.1881C65.9585 38.2096 65.9441 38.2298 65.9254 38.25C65.9066 38.2688 65.8576 38.2962 65.7754 38.3308C65.6934 38.3653 65.5896 38.3986 65.4627 38.4317C65.336 38.4648 65.192 38.4936 65.0291 38.5181C64.8662 38.5428 64.6919 38.5557 64.506 38.5557C64.1704 38.5557 63.8779 38.5138 63.6257 38.4288C63.3749 38.3452 63.1645 38.2169 62.9945 38.0453C62.8259 37.8739 62.7006 37.6561 62.617 37.3952C62.5348 37.133 62.4931 36.8259 62.4931 36.4741C62.4931 36.1398 62.5364 35.8384 62.6241 35.5689C62.7106 35.3007 62.8375 35.0729 63.0045 34.8857C63.1703 34.6982 63.372 34.5555 63.6098 34.4575C63.8489 34.358 64.1169 34.3091 64.4153 34.3091C64.7309 34.3091 65.0003 34.3551 65.2237 34.4489C65.4484 34.5412 65.6313 34.6708 65.7754 34.8352C65.9181 34.9995 66.0248 35.1955 66.0925 35.4204C66.1603 35.6452 66.1934 35.8903 66.1934 36.1556V36.3243ZM64.9844 35.3181C65.1127 35.4882 65.1732 35.7232 65.1646 36.0215H63.5738C63.5795 35.8889 63.5997 35.7649 63.6357 35.6468C63.6703 35.5299 63.7207 35.429 63.787 35.3426C63.8532 35.2561 63.9368 35.1883 64.0377 35.1379C64.1371 35.0874 64.2553 35.0615 64.3908 35.0615C64.6588 35.0615 64.8562 35.1466 64.9844 35.3181ZM69.9152 37.7167C69.9152 37.7903 69.9138 37.8508 69.9095 37.9012C69.9052 37.9503 69.8993 37.992 69.8921 38.0267C69.885 38.0598 69.8763 38.0872 69.8662 38.1088C69.8561 38.1305 69.8345 38.1563 69.8014 38.1895C69.7668 38.2212 69.7092 38.2615 69.6286 38.3077C69.5463 38.3538 69.4541 38.3957 69.349 38.4331C69.2452 38.4691 69.1328 38.4995 69.0103 38.521C68.8879 38.5441 68.7611 38.5557 68.6314 38.5557C68.3417 38.5557 68.0852 38.511 67.8619 38.4202C67.6371 38.3308 67.4497 38.1967 67.297 38.0208C67.1458 37.8449 67.0305 37.6287 66.9542 37.3751C66.8763 37.1214 66.8375 36.8316 66.8375 36.5045C66.8375 36.1267 66.8849 35.7996 66.9787 35.5256C67.0738 35.2504 67.2048 35.0226 67.3734 34.8424C67.5421 34.6622 67.7424 34.5281 67.9729 34.4401C68.2035 34.3522 68.457 34.3091 68.7337 34.3091C68.846 34.3091 68.9557 34.3191 69.0651 34.3392C69.1732 34.358 69.274 34.3855 69.3692 34.4186C69.4628 34.4532 69.5477 34.4906 69.6213 34.5324C69.6961 34.5757 69.7496 34.6117 69.7797 34.6434C69.8114 34.6738 69.8331 34.6996 69.8461 34.7213C69.8576 34.7429 69.8676 34.7703 69.8749 34.8034C69.8821 34.8381 69.8878 34.8798 69.8921 34.9288C69.8964 34.9793 69.898 35.0384 69.898 35.109C69.898 35.2733 69.885 35.3887 69.8561 35.455C69.8273 35.5213 69.7913 35.5545 69.7466 35.5545C69.6991 35.5545 69.6472 35.5344 69.5939 35.4954C69.5406 35.4564 69.4772 35.4118 69.4036 35.3642C69.3316 35.3166 69.2437 35.2719 69.1428 35.233C69.042 35.1942 68.921 35.174 68.7798 35.174C68.5032 35.174 68.2928 35.2805 68.1457 35.4925C68.0003 35.7058 67.9268 36.0172 67.9268 36.4281C67.9268 36.6298 67.9454 36.8086 67.9815 36.9642C68.019 37.1185 68.0723 37.2482 68.1443 37.352C68.2164 37.4558 68.3057 37.5351 68.4138 37.587C68.5234 37.6389 68.6487 37.6648 68.7928 37.6648C68.9383 37.6648 69.0651 37.6432 69.1703 37.5985C69.2754 37.5553 69.3676 37.5063 69.4469 37.4528C69.5248 37.3996 69.591 37.3506 69.6458 37.3073C69.6991 37.2626 69.7437 37.2411 69.7797 37.2411C69.8057 37.2411 69.8259 37.2482 69.8432 37.2626C69.8604 37.2771 69.8735 37.303 69.8835 37.3404C69.8937 37.3794 69.9009 37.4284 69.9066 37.4875C69.9123 37.5466 69.9152 37.623 69.9152 37.7167ZM74.6141 34.4805C74.5681 34.4301 74.4845 34.4041 74.3678 34.4041H71.9341V33.5609C71.9341 33.5335 71.9254 33.5076 71.908 33.4845C71.8922 33.4628 71.8634 33.4442 71.8245 33.4283C71.7841 33.4124 71.7295 33.4009 71.6602 33.3936C71.5911 33.3864 71.5047 33.3836 71.4009 33.3836C71.2986 33.3836 71.2136 33.3864 71.1445 33.3936C71.0752 33.4009 71.019 33.4124 70.9787 33.4283C70.9383 33.4442 70.9095 33.4628 70.8937 33.4845C70.8778 33.5076 70.8706 33.5335 70.8706 33.5609V34.4041H70.4181C70.3907 34.4041 70.3649 34.4113 70.3447 34.4258C70.323 34.4401 70.3044 34.4632 70.2914 34.495C70.277 34.5281 70.2654 34.5729 70.2582 34.6291C70.251 34.6853 70.2482 34.7545 70.2482 34.8365C70.2482 34.9922 70.2625 35.1033 70.2914 35.1697C70.3187 35.2359 70.3606 35.269 70.4138 35.269H70.8706V37.1992C70.8706 37.4299 70.8951 37.6303 70.9426 37.7989C70.9902 37.9689 71.0652 38.1088 71.166 38.2198C71.2684 38.3308 71.3966 38.4129 71.5507 38.4662C71.7064 38.5197 71.8894 38.5471 72.0997 38.5471C72.179 38.5471 72.2567 38.5428 72.3346 38.534C72.4124 38.5254 72.4844 38.5138 72.5492 38.4979C72.6156 38.4836 72.6747 38.4648 72.725 38.4433C72.7755 38.4231 72.8145 38.3971 72.839 38.3669C72.8648 38.3379 72.885 38.2919 72.8979 38.2284C72.9124 38.165 72.9196 38.0713 72.9196 37.9474C72.9196 37.868 72.9167 37.8046 72.9095 37.7527C72.9024 37.7023 72.8936 37.662 72.8865 37.633C72.8778 37.6028 72.8648 37.5841 72.8505 37.574C72.8347 37.5639 72.8188 37.5596 72.8014 37.5596C72.7828 37.5596 72.7597 37.5639 72.7366 37.574C72.7121 37.5841 72.6833 37.5956 72.6473 37.6072C72.6127 37.6201 72.5723 37.6316 72.5277 37.6418C72.483 37.6518 72.4325 37.6561 72.3764 37.6561C72.2107 37.6561 72.0954 37.6042 72.0306 37.502C71.9658 37.3996 71.9341 37.2454 71.9341 37.0392V35.269H73.6199V38.3177C73.6199 38.3452 73.6286 38.3697 73.6458 38.3914C73.6617 38.4129 73.6904 38.4302 73.7294 38.4447C73.7697 38.4576 73.8245 38.4691 73.8937 38.4764C73.9628 38.4836 74.0493 38.4864 74.1544 38.4864C74.2553 38.4864 74.3404 38.4836 74.4095 38.4764C74.4787 38.4691 74.5335 38.4576 74.5738 38.4447C74.6127 38.4302 74.6415 38.4129 74.6574 38.3914C74.6746 38.3697 74.6833 38.3452 74.6833 38.3177V34.6996C74.6833 34.6045 74.6603 34.531 74.6141 34.4805ZM79.3217 38.3914C79.3389 38.3697 79.3475 38.3452 79.3475 38.3177V35.9898C79.3475 35.7173 79.3231 35.4838 79.2755 35.2892C79.2279 35.0947 79.1502 34.9245 79.0421 34.7803C78.9325 34.6348 78.7913 34.5194 78.6155 34.4358C78.4397 34.3508 78.2236 34.3091 77.9671 34.3091C77.7337 34.3091 77.509 34.3653 77.2942 34.4777C77.0781 34.5901 76.8662 34.7574 76.6589 34.9822V34.5469C76.6589 34.5194 76.6516 34.495 76.6371 34.4734C76.6228 34.4517 76.5997 34.4344 76.568 34.4199C76.5349 34.407 76.4887 34.3955 76.4296 34.3882C76.3707 34.3811 76.2971 34.3782 76.2064 34.3782C76.1199 34.3782 76.0465 34.3811 75.9887 34.3882C75.9311 34.3955 75.885 34.407 75.8476 34.4199C75.8115 34.4344 75.7855 34.4517 75.7726 34.4734C75.7583 34.495 75.751 34.5194 75.751 34.5469V38.3177C75.751 38.3452 75.7597 38.3697 75.7769 38.3914C75.7927 38.4129 75.8215 38.4302 75.8634 38.4447C75.9037 38.4576 75.9586 38.4691 76.0247 38.4764C76.0925 38.4836 76.179 38.4864 76.2828 38.4864C76.3865 38.4864 76.4729 38.4836 76.5406 38.4764C76.607 38.4691 76.6616 38.4576 76.702 38.4447C76.7438 38.4302 76.7726 38.4129 76.7885 38.3914C76.8057 38.3697 76.8143 38.3452 76.8143 38.3177V35.8125C76.9627 35.6251 77.1068 35.4809 77.2439 35.383C77.3821 35.2835 77.5176 35.2345 77.653 35.2345C77.7596 35.2345 77.8518 35.2547 77.9326 35.295C78.0117 35.3368 78.0781 35.3945 78.1286 35.4694C78.1789 35.543 78.2179 35.6323 78.2437 35.7375C78.2711 35.8413 78.2841 35.9854 78.2841 36.1686V38.3177C78.2841 38.3452 78.2929 38.3697 78.3101 38.3914C78.326 38.4129 78.3547 38.4302 78.3937 38.4447C78.434 38.4576 78.4888 38.4691 78.5579 38.4764C78.6271 38.4836 78.7136 38.4864 78.8187 38.4864C78.9196 38.4864 79.0045 38.4836 79.0738 38.4764C79.1429 38.4691 79.1978 38.4576 79.2381 38.4447C79.2769 38.4302 79.3058 38.4129 79.3217 38.3914ZM83.7814 34.8107C83.7814 34.9462 83.7655 35.0457 83.7338 35.1105C83.7035 35.1754 83.6661 35.2085 83.6199 35.2085H83.1776C83.2395 35.2762 83.2827 35.3526 83.3101 35.4376C83.3375 35.5242 83.3505 35.6135 83.3505 35.7058C83.3505 35.9249 83.3131 36.1196 83.241 36.2896C83.1674 36.4598 83.0623 36.6039 82.9254 36.7207C82.79 36.8374 82.6243 36.9254 82.4326 36.9859C82.2396 37.0464 82.0248 37.0767 81.7885 37.0767C81.6675 37.0767 81.5522 37.0623 81.4428 37.0319C81.3318 37.0031 81.2482 36.9686 81.1891 36.9297C81.1546 36.9657 81.1242 37.009 81.0984 37.0609C81.071 37.1112 81.0579 37.1675 81.0579 37.2295C81.0579 37.3116 81.0939 37.3794 81.166 37.4313C81.2366 37.4832 81.3375 37.512 81.4672 37.5178L82.3837 37.5509C82.5969 37.5596 82.7886 37.5899 82.9556 37.6418C83.1228 37.6937 83.264 37.7672 83.3779 37.8623C83.4916 37.956 83.5795 38.0698 83.64 38.201C83.7006 38.3336 83.7309 38.485 83.7309 38.6536C83.7309 38.8397 83.6892 39.014 83.6083 39.1783C83.5263 39.3442 83.4037 39.4868 83.241 39.6079C83.0768 39.7291 82.872 39.8241 82.6257 39.8948C82.3792 39.9655 82.0926 40 81.7625 40C81.4428 40 81.1689 39.9741 80.9412 39.9236C80.7151 39.8732 80.5291 39.8025 80.385 39.7132C80.2395 39.6224 80.1344 39.5156 80.068 39.3903C80.0018 39.2649 79.9686 39.128 79.9686 38.978C79.9686 38.8857 79.9801 38.7964 80.0046 38.7128C80.0292 38.6278 80.0637 38.5471 80.1099 38.4691C80.1559 38.3928 80.2136 38.3177 80.2814 38.2486C80.349 38.1779 80.4253 38.1103 80.5132 38.0453C80.3922 37.9805 80.2986 37.8925 80.2323 37.7816C80.1661 37.6706 80.1328 37.548 80.1328 37.4154C80.1328 37.2497 80.1718 37.0983 80.2467 36.9614C80.3231 36.8245 80.4226 36.7019 80.5436 36.5909C80.4441 36.4929 80.3664 36.3746 80.3072 36.2377C80.2481 36.0994 80.218 35.9278 80.218 35.7232C80.218 35.5026 80.2568 35.3066 80.3346 35.1336C80.411 34.9605 80.5191 34.815 80.6573 34.6953C80.7943 34.5757 80.96 34.4849 81.1501 34.4215C81.3418 34.358 81.5536 34.3263 81.7842 34.3263C81.9023 34.3263 82.0162 34.3336 82.1243 34.3465C82.2324 34.361 82.3332 34.3796 82.4254 34.4041H83.6199C83.6674 34.4041 83.7064 34.4358 83.7366 34.4979C83.7655 34.5598 83.7814 34.6636 83.7814 34.8107ZM82.2482 35.2302C82.3606 35.3426 82.4168 35.5011 82.4168 35.703C82.4168 35.788 82.4039 35.8687 82.3778 35.9465C82.3504 36.0244 82.3116 36.0922 82.2582 36.1513C82.2063 36.2103 82.1415 36.2565 82.0622 36.291C81.9845 36.3243 81.8908 36.3415 81.7842 36.3415C81.5839 36.3415 81.4283 36.2853 81.3159 36.1743C81.2035 36.0634 81.1473 35.912 81.1473 35.7202C81.1473 35.6337 81.1589 35.5501 81.1847 35.4694C81.2092 35.3887 81.2482 35.3181 81.3001 35.2574C81.3533 35.1969 81.4181 35.1493 81.4974 35.1148C81.5753 35.0788 81.6675 35.0615 81.7713 35.0615C81.9773 35.0615 82.1358 35.1178 82.2482 35.2302ZM82.666 38.7085C82.666 38.5831 82.6155 38.485 82.5147 38.4188C82.4125 38.351 82.2741 38.3134 82.0969 38.3091L81.3404 38.2876C81.2683 38.3409 81.2092 38.3928 81.166 38.4417C81.1213 38.4909 81.0868 38.5369 81.0594 38.5831C81.0334 38.6278 81.0162 38.671 81.0076 38.7128C80.9989 38.7545 80.9946 38.7993 80.9946 38.844C80.9946 38.9838 81.0651 39.0904 81.2078 39.164C81.3505 39.2375 81.5508 39.2735 81.8087 39.2735C81.97 39.2735 82.1055 39.2577 82.215 39.2246C82.3246 39.1928 82.4125 39.1496 82.4802 39.0963C82.5479 39.0428 82.5954 38.9838 82.6243 38.9175C82.6516 38.8512 82.666 38.7819 82.666 38.7085ZM89.5638 33.6632C89.571 33.6056 89.5738 33.5349 89.5738 33.4499C89.5738 33.3662 89.571 33.2941 89.5638 33.2352C89.5565 33.176 89.545 33.1284 89.5291 33.0938C89.5133 33.0577 89.496 33.0333 89.4773 33.0174C89.4571 33.0015 89.4342 32.9944 89.4095 32.9944H86.8346C86.741 32.9944 86.6633 33.0217 86.5998 33.0765C86.5364 33.1314 86.5047 33.2207 86.5047 33.3447V38.3005C86.5047 38.3308 86.5133 38.3581 86.5321 38.3812C86.5507 38.4029 86.5811 38.4231 86.6228 38.4374C86.6646 38.4533 86.7222 38.4648 86.7943 38.4735C86.8663 38.4821 86.9558 38.4864 87.0623 38.4864C87.1719 38.4864 87.2626 38.4821 87.3332 38.4735C87.4024 38.4648 87.4601 38.4533 87.5032 38.4374C87.5478 38.4216 87.5782 38.4029 87.594 38.3812C87.6113 38.3581 87.6199 38.3308 87.6199 38.3005V36.2637H89.2987C89.3245 36.2637 89.3476 36.2565 89.3664 36.2406C89.3866 36.2248 89.4038 36.1987 89.4197 36.1627C89.4355 36.1253 89.4455 36.0792 89.4528 36.023C89.46 35.9667 89.4643 35.8961 89.4643 35.8125C89.4643 35.7275 89.46 35.6568 89.4528 35.6006C89.4455 35.5444 89.4355 35.4997 89.4197 35.4651C89.4038 35.4319 89.3866 35.4075 89.3664 35.3945C89.3476 35.38 89.3245 35.3728 89.2987 35.3728H87.6199V33.9025H89.4095C89.4342 33.9025 89.4571 33.8939 89.4773 33.8766C89.496 33.8607 89.5133 33.8347 89.5291 33.8016C89.545 33.767 89.5565 33.7209 89.5638 33.6632ZM93.3837 38.3308C93.3837 38.3697 93.3692 38.4 93.3418 38.4231C93.313 38.446 93.2684 38.4619 93.2079 38.4721C93.1474 38.4821 93.0581 38.4864 92.9385 38.4864C92.8116 38.4864 92.7194 38.4821 92.6618 38.4721C92.6041 38.4619 92.5624 38.446 92.5393 38.4231C92.5148 38.4 92.5032 38.3697 92.5032 38.3308V38.031C92.3476 38.1967 92.1718 38.325 91.9731 38.4172C91.7755 38.5095 91.5551 38.5557 91.3131 38.5557C91.1142 38.5557 90.9298 38.5297 90.7626 38.4778C90.5955 38.4259 90.4514 38.3481 90.3289 38.2457C90.2064 38.1419 90.1114 38.0151 90.0436 37.8637C89.9759 37.711 89.9428 37.5337 89.9428 37.3318C89.9428 37.1112 89.9859 36.921 90.071 36.7595C90.1574 36.5967 90.2856 36.4641 90.4557 36.3574C90.6257 36.2522 90.8362 36.1743 91.0897 36.1239C91.3419 36.0734 91.6358 36.0475 91.9701 36.0475H92.3376V35.8197C92.3376 35.7015 92.3261 35.5977 92.3016 35.5083C92.2785 35.4204 92.2382 35.3454 92.1833 35.2864C92.1285 35.2273 92.0565 35.184 91.9643 35.1552C91.8736 35.1278 91.7597 35.1133 91.6257 35.1133C91.4486 35.1133 91.29 35.1336 91.1516 35.1724C91.012 35.2114 90.8894 35.2561 90.7827 35.3037C90.6762 35.3512 90.5868 35.3959 90.5147 35.4349C90.4427 35.4737 90.3851 35.4939 90.3404 35.4939C90.3087 35.4939 90.2813 35.4838 90.2582 35.4651C90.2338 35.4449 90.2136 35.4161 90.1993 35.38C90.1834 35.344 90.1719 35.298 90.1632 35.2445C90.1545 35.1912 90.1502 35.1321 90.1502 35.0686C90.1502 34.9807 90.1574 34.9115 90.1719 34.861C90.1848 34.8107 90.2122 34.766 90.2512 34.7241C90.2915 34.6838 90.3592 34.6391 90.4585 34.5901C90.5566 34.5412 90.6719 34.495 90.8044 34.4532C90.937 34.4099 91.0811 34.3753 91.2367 34.3494C91.3937 34.322 91.5551 34.3091 91.7209 34.3091C92.0162 34.3091 92.2683 34.3379 92.4788 34.3955C92.6877 34.4532 92.8606 34.5425 92.9946 34.6622C93.1301 34.7819 93.2294 34.936 93.2915 35.1248C93.3533 35.3123 93.3837 35.5371 93.3837 35.7952V38.3308ZM91.9326 36.7134H92.3376V37.3549C92.2078 37.502 92.0811 37.6129 91.9557 37.6892C91.8303 37.7658 91.6935 37.8032 91.5451 37.8032C91.3677 37.8032 91.2295 37.7585 91.13 37.6677C91.0306 37.5784 90.9802 37.4544 90.9802 37.2958C90.9802 37.2035 90.9975 37.1214 91.0335 37.0493C91.0681 36.9773 91.1228 36.9167 91.1992 36.8662C91.2755 36.8143 91.3736 36.7769 91.4946 36.7509C91.6156 36.7264 91.7612 36.7134 91.9326 36.7134Z" fill="black"/>
<path fill-rule="evenodd" clip-rule="evenodd" d="M96.8649 34.8986C96.8649 34.9995 96.8621 35.0831 96.8563 35.148C96.8506 35.2128 96.8419 35.2633 96.8318 35.2994C96.8202 35.3354 96.8044 35.3613 96.7871 35.3757C96.7684 35.3902 96.7454 35.3959 96.7165 35.3959C96.6949 35.3959 96.6689 35.3916 96.6401 35.3814C96.6128 35.3715 96.5812 35.3613 96.5453 35.3498L96.545 35.3497C96.5105 35.3383 96.4715 35.3282 96.4298 35.3181C96.3866 35.308 96.3404 35.3037 96.29 35.3037C96.2309 35.3037 96.1718 35.3152 96.1128 35.3397C96.0537 35.3642 95.9917 35.4002 95.9283 35.4521C95.865 35.5026 95.7986 35.5704 95.7295 35.6539C95.6604 35.7391 95.5868 35.8429 95.5075 35.9667V38.3178C95.5075 38.3452 95.4989 38.3697 95.4817 38.3914C95.4658 38.4129 95.437 38.4302 95.3951 38.4447C95.3548 38.4576 95.3002 38.4692 95.2338 38.4764C95.1661 38.4836 95.0797 38.4864 94.9759 38.4864C94.8722 38.4864 94.7857 38.4836 94.7179 38.4764C94.6517 38.4692 94.5969 38.4576 94.5566 38.4447C94.5147 38.4302 94.4859 38.4129 94.4701 38.3914C94.4528 38.3697 94.4442 38.3452 94.4442 38.3178V34.5469C94.4442 34.5195 94.4514 34.495 94.4658 34.4734C94.4787 34.4517 94.5047 34.4344 94.5407 34.42C94.5781 34.407 94.6243 34.3955 94.6819 34.3882C94.7396 34.3812 94.8131 34.3782 94.8996 34.3782C94.9903 34.3782 95.0639 34.3812 95.1228 34.3882C95.1819 34.3955 95.2281 34.407 95.2612 34.42C95.2929 34.4344 95.316 34.4517 95.3303 34.4734C95.3448 34.495 95.352 34.5195 95.352 34.5469V35.0168C95.45 34.8755 95.5436 34.7602 95.6301 34.6695C95.718 34.5786 95.8016 34.5051 95.8793 34.4517C95.9586 34.3984 96.0379 34.361 96.1172 34.3408C96.1949 34.3191 96.2742 34.3091 96.3535 34.3091C96.3895 34.3091 96.4298 34.3105 96.4715 34.3148C96.5134 34.3191 96.5581 34.3263 96.6027 34.3365C96.6474 34.3465 96.6877 34.3581 96.7208 34.3696C96.7554 34.3825 96.7799 34.3955 96.7958 34.41C96.8102 34.4243 96.8218 34.4401 96.8289 34.456C96.8361 34.4734 96.8419 34.4964 96.8476 34.5267C96.8533 34.5555 96.8578 34.6002 96.8606 34.6593C96.8635 34.7184 96.8649 34.7978 96.8649 34.8986ZM103.509 38.3178C103.509 38.3452 103.5 38.3697 103.483 38.3914C103.467 38.4129 103.438 38.4302 103.4 38.4447C103.359 38.4576 103.306 38.4692 103.238 38.4764C103.17 38.4836 103.084 38.4864 102.98 38.4864C102.872 38.4864 102.784 38.4836 102.717 38.4764C102.649 38.4692 102.594 38.4576 102.554 38.4447C102.513 38.4302 102.485 38.4129 102.469 38.3914C102.453 38.3697 102.446 38.3452 102.446 38.3178V36.0836C102.446 35.9567 102.434 35.8413 102.41 35.7375C102.387 35.6323 102.349 35.543 102.3 35.4694C102.251 35.3945 102.189 35.3368 102.116 35.295C102.041 35.2547 101.953 35.2345 101.849 35.2345C101.722 35.2345 101.594 35.2835 101.466 35.383C101.336 35.4809 101.196 35.6251 101.045 35.8125V38.3178C101.045 38.3452 101.037 38.3697 101.019 38.3914C101.003 38.4129 100.974 38.4302 100.933 38.4447C100.892 38.4576 100.838 38.4692 100.77 38.4764C100.702 38.4836 100.617 38.4864 100.516 38.4864C100.411 38.4864 100.325 38.4836 100.257 38.4764C100.189 38.4692 100.134 38.4576 100.094 38.4447C100.052 38.4302 100.024 38.4129 100.008 38.3914C99.9903 38.3697 99.9817 38.3452 99.9817 38.3178V36.0836C99.9817 35.9567 99.9701 35.8413 99.9457 35.7375C99.9226 35.6323 99.8866 35.543 99.8376 35.4694C99.79 35.3945 99.7281 35.3368 99.6532 35.295C99.5768 35.2547 99.4875 35.2345 99.3867 35.2345C99.2569 35.2345 99.1287 35.2835 98.999 35.383C98.8693 35.4809 98.7295 35.6251 98.5811 35.8125V38.3178C98.5811 38.3452 98.5725 38.3697 98.5552 38.3914C98.5394 38.4129 98.5106 38.4302 98.4687 38.4447C98.4284 38.4576 98.3737 38.4692 98.3074 38.4764C98.2396 38.4836 98.1533 38.4864 98.0495 38.4864C97.9457 38.4864 97.8592 38.4836 97.7915 38.4764C97.7253 38.4692 97.6705 38.4576 97.6301 38.4447C97.5883 38.4302 97.5595 38.4129 97.5436 38.3914C97.5264 38.3697 97.5178 38.3452 97.5178 38.3178V34.5469C97.5178 34.5195 97.525 34.495 97.5393 34.4734C97.5523 34.4517 97.5783 34.4344 97.6143 34.42C97.6517 34.407 97.6979 34.3955 97.7555 34.3882C97.8132 34.3812 97.8866 34.3782 97.9731 34.3782C98.0638 34.3782 98.1374 34.3812 98.1964 34.3882C98.2555 34.3955 98.3017 34.407 98.3348 34.42C98.3665 34.4344 98.3896 34.4517 98.4039 34.4734C98.4184 34.495 98.4256 34.5195 98.4256 34.5469V34.9823C98.633 34.7574 98.8405 34.5901 99.048 34.4777C99.2555 34.3653 99.4717 34.3091 99.6964 34.3091C99.8521 34.3091 99.9919 34.3249 100.116 34.3581C100.24 34.3898 100.349 34.4358 100.447 34.4964C100.544 34.557 100.627 34.6291 100.698 34.7126C100.769 34.7978 100.827 34.8914 100.875 34.9952C100.987 34.8741 101.098 34.7703 101.206 34.6838C101.315 34.5974 101.423 34.5253 101.528 34.4705C101.633 34.4157 101.738 34.3753 101.845 34.3494C101.95 34.322 102.057 34.3091 102.168 34.3091C102.417 34.3091 102.629 34.3508 102.8 34.4358C102.972 34.5195 103.11 34.6348 103.215 34.7803C103.322 34.9245 103.397 35.0947 103.441 35.2892C103.486 35.4839 103.509 35.6885 103.509 35.9061V38.3178ZM107.94 36.611C107.998 36.5491 108.026 36.454 108.026 36.3243V36.1556C108.026 35.8903 107.993 35.6453 107.926 35.4204C107.858 35.1956 107.751 34.9995 107.608 34.8352C107.464 34.6708 107.281 34.5412 107.057 34.4489C106.833 34.3551 106.564 34.3091 106.248 34.3091C105.95 34.3091 105.682 34.3581 105.443 34.4575C105.205 34.5555 105.003 34.6983 104.837 34.8857C104.67 35.073 104.544 35.3007 104.457 35.5689C104.369 35.8384 104.326 36.1398 104.326 36.4741C104.326 36.8259 104.368 37.133 104.45 37.3953C104.534 37.6561 104.659 37.8739 104.827 38.0453C104.997 38.2169 105.208 38.3452 105.459 38.4288C105.711 38.5138 106.003 38.5557 106.339 38.5557C106.525 38.5557 106.699 38.5428 106.862 38.5181C107.025 38.4936 107.169 38.4648 107.296 38.4317C107.423 38.3986 107.526 38.3654 107.608 38.3309C107.691 38.2962 107.74 38.2688 107.758 38.25C107.777 38.2298 107.791 38.2097 107.803 38.1881C107.815 38.1679 107.822 38.1419 107.827 38.1103C107.833 38.08 107.838 38.0426 107.84 37.9993C107.843 37.956 107.845 37.9027 107.845 37.8407C107.845 37.7715 107.843 37.7124 107.839 37.6663C107.835 37.6201 107.826 37.5841 107.816 37.5596C107.804 37.5337 107.79 37.5163 107.773 37.5063C107.757 37.4961 107.735 37.4918 107.709 37.4918C107.668 37.4918 107.613 37.5048 107.545 37.5322C107.477 37.5596 107.392 37.5884 107.29 37.6217C107.188 37.6548 107.065 37.6836 106.925 37.711C106.784 37.7384 106.621 37.7513 106.436 37.7513C106.253 37.7513 106.097 37.7268 105.966 37.6792C105.835 37.6317 105.728 37.5625 105.644 37.4716C105.562 37.3808 105.502 37.2699 105.464 37.1401C105.425 37.009 105.407 36.8649 105.407 36.7048H107.701C107.803 36.7048 107.882 36.6731 107.94 36.611ZM106.998 36.0215C107.006 35.7232 106.946 35.4882 106.817 35.3181C106.689 35.1466 106.492 35.0616 106.224 35.0616C106.088 35.0616 105.97 35.0874 105.871 35.138C105.77 35.1883 105.686 35.2561 105.62 35.3426C105.554 35.429 105.503 35.5299 105.469 35.6468C105.433 35.7649 105.412 35.8889 105.407 36.0215H106.998ZM111.316 35.148C111.322 35.0831 111.325 34.9995 111.325 34.8986C111.325 34.7978 111.323 34.7184 111.32 34.6593C111.317 34.6002 111.313 34.5555 111.307 34.5267C111.302 34.4964 111.296 34.4734 111.288 34.456C111.281 34.4401 111.27 34.4243 111.255 34.41C111.24 34.3955 111.215 34.3825 111.18 34.3696C111.147 34.3581 111.107 34.3465 111.062 34.3365C111.018 34.3263 110.973 34.3191 110.931 34.3148C110.889 34.3105 110.849 34.3091 110.813 34.3091C110.734 34.3091 110.655 34.3191 110.577 34.3408C110.498 34.361 110.418 34.3984 110.339 34.4517C110.261 34.5051 110.178 34.5786 110.09 34.6695C110.003 34.7602 109.91 34.8755 109.812 35.0168V34.5469C109.812 34.5195 109.804 34.495 109.79 34.4734C109.776 34.4517 109.753 34.4344 109.721 34.42C109.688 34.407 109.642 34.3955 109.582 34.3882C109.523 34.3812 109.45 34.3782 109.359 34.3782C109.273 34.3782 109.199 34.3812 109.142 34.3882C109.084 34.3955 109.038 34.407 109 34.42C108.964 34.4344 108.938 34.4517 108.925 34.4734C108.911 34.495 108.904 34.5195 108.904 34.5469V38.3178C108.904 38.3452 108.912 38.3697 108.93 38.3914C108.946 38.4129 108.974 38.4302 109.016 38.4447C109.057 38.4576 109.111 38.4692 109.178 38.4764C109.245 38.4836 109.332 38.4864 109.436 38.4864C109.539 38.4864 109.626 38.4836 109.693 38.4764C109.76 38.4692 109.814 38.4576 109.855 38.4447C109.897 38.4302 109.925 38.4129 109.941 38.3914C109.959 38.3697 109.967 38.3452 109.967 38.3178V35.9667C110.046 35.8429 110.12 35.7391 110.189 35.6539C110.258 35.5704 110.325 35.5026 110.388 35.4521C110.451 35.4002 110.513 35.3642 110.572 35.3397C110.631 35.3152 110.691 35.3037 110.75 35.3037C110.8 35.3037 110.846 35.308 110.889 35.3181C110.931 35.3282 110.97 35.3383 111.005 35.3497L111.005 35.3498C111.041 35.3613 111.072 35.3715 111.1 35.3814C111.129 35.3916 111.155 35.3959 111.176 35.3959C111.205 35.3959 111.228 35.3902 111.247 35.3757C111.264 35.3613 111.28 35.3354 111.291 35.2994C111.302 35.2633 111.31 35.2128 111.316 35.148ZM114.526 37.2511C114.526 37.4644 114.486 37.6532 114.405 37.8177C114.326 37.9805 114.212 38.116 114.065 38.2271C113.918 38.3366 113.745 38.4188 113.545 38.4735C113.345 38.5283 113.129 38.5557 112.895 38.5557C112.754 38.5557 112.618 38.5455 112.49 38.524C112.362 38.5023 112.248 38.475 112.146 38.4417C112.045 38.41 111.96 38.3769 111.892 38.3423C111.825 38.3078 111.776 38.276 111.745 38.2457C111.714 38.2155 111.689 38.1693 111.673 38.1059C111.656 38.0439 111.647 37.9503 111.647 37.8263C111.647 37.7456 111.65 37.6806 111.656 37.6317C111.662 37.5827 111.67 37.5423 111.68 37.5135C111.692 37.4846 111.706 37.4644 111.724 37.4544C111.74 37.4442 111.761 37.4399 111.787 37.4399C111.817 37.4399 111.863 37.4573 111.924 37.4934C111.984 37.5294 112.059 37.5682 112.15 37.6101C112.24 37.6532 112.345 37.6937 112.464 37.7298C112.584 37.7672 112.721 37.786 112.872 37.786C112.967 37.786 113.054 37.7758 113.127 37.7556C113.202 37.7368 113.267 37.708 113.322 37.6706C113.376 37.6346 113.418 37.5884 113.447 37.5308C113.474 37.4746 113.489 37.4097 113.489 37.3361C113.489 37.2511 113.463 37.179 113.411 37.1185C113.358 37.058 113.289 37.0047 113.203 36.9599C113.117 36.9152 113.019 36.8735 112.911 36.8331C112.803 36.7942 112.69 36.7509 112.577 36.7019C112.463 36.6543 112.35 36.5995 112.242 36.5376C112.134 36.4757 112.036 36.4007 111.95 36.3098C111.865 36.2205 111.796 36.1108 111.742 35.9855C111.691 35.8587 111.665 35.7058 111.665 35.5285C111.665 35.3483 111.701 35.184 111.771 35.0326C111.842 34.8828 111.943 34.7531 112.075 34.6464C112.209 34.5396 112.371 34.456 112.561 34.397C112.753 34.3379 112.966 34.3091 113.203 34.3091C113.323 34.3091 113.437 34.3177 113.549 34.3336C113.66 34.3508 113.763 34.3725 113.852 34.397C113.943 34.4229 114.019 34.4489 114.081 34.4791C114.143 34.5079 114.188 34.5339 114.215 34.5541C114.242 34.5757 114.261 34.5958 114.273 34.6176C114.283 34.6391 114.291 34.6636 114.297 34.6939C114.303 34.7227 114.309 34.7602 114.313 34.8034C114.317 34.8467 114.319 34.9016 114.319 34.9664C114.319 35.0428 114.317 35.1047 114.313 35.1523C114.309 35.1999 114.302 35.2388 114.291 35.2662C114.281 35.295 114.268 35.3137 114.251 35.3238C114.234 35.334 114.214 35.3383 114.192 35.3383C114.166 35.3383 114.126 35.3238 114.072 35.2935C114.019 35.2647 113.951 35.233 113.871 35.1999C113.79 35.1668 113.696 35.135 113.591 35.1062C113.485 35.0759 113.363 35.0616 113.228 35.0616C113.131 35.0616 113.048 35.0716 112.977 35.0904C112.907 35.1105 112.849 35.1393 112.803 35.1754C112.758 35.2114 112.724 35.2547 112.702 35.3037C112.679 35.3526 112.667 35.4061 112.667 35.4608C112.667 35.5487 112.695 35.6222 112.748 35.6813C112.801 35.7404 112.872 35.7923 112.96 35.837C113.046 35.8817 113.147 35.9249 113.258 35.9639C113.369 36.0027 113.483 36.046 113.597 36.0922C113.711 36.1382 113.824 36.1931 113.935 36.255C114.046 36.317 114.147 36.3934 114.234 36.4828C114.322 36.5736 114.392 36.6804 114.446 36.8057C114.499 36.9311 114.526 37.0795 114.526 37.2511ZM116.43 38.3769C116.522 38.2876 116.567 38.1103 116.567 37.8493C116.567 37.5985 116.522 37.4284 116.432 37.339C116.342 37.2511 116.18 37.2064 115.947 37.2064C115.708 37.2064 115.542 37.2511 115.45 37.342C115.359 37.4313 115.313 37.6101 115.313 37.8739C115.313 38.1217 115.358 38.2905 115.448 38.3798C115.538 38.4678 115.702 38.5124 115.938 38.5124C116.175 38.5124 116.339 38.4678 116.43 38.3769ZM118.876 37.8493C118.876 38.1103 118.832 38.2876 118.74 38.3769C118.649 38.4678 118.484 38.5124 118.248 38.5124C118.012 38.5124 117.848 38.4678 117.758 38.3798C117.667 38.2905 117.623 38.1217 117.623 37.8739C117.623 37.6101 117.669 37.4313 117.76 37.342C117.852 37.2511 118.018 37.2064 118.257 37.2064C118.49 37.2064 118.652 37.2511 118.742 37.339C118.832 37.4284 118.876 37.5985 118.876 37.8493ZM121.049 38.3769C121.142 38.2876 121.186 38.1103 121.186 37.8493C121.186 37.5985 121.142 37.4284 121.052 37.339C120.961 37.2511 120.8 37.2064 120.567 37.2064C120.327 37.2064 120.162 37.2511 120.069 37.342C119.979 37.4313 119.933 37.6101 119.933 37.8739C119.933 38.1217 119.977 38.2905 120.068 38.3798C120.157 38.4678 120.322 38.5124 120.558 38.5124C120.794 38.5124 120.959 38.4678 121.049 38.3769Z" fill="black"/>
<path fill-rule="evenodd" clip-rule="evenodd" d="M41.4701 27.3467C41.6601 25.337 41.07 25.3643 42.4024 24.1304C43.4251 23.1835 46.0554 19.9978 46.5388 19.9293C46.688 19.9082 49.4808 20.5931 49.7365 20.692C49.6322 21.1598 49.1556 21.3693 48.4391 22.0786C47.9305 22.5823 47.6719 22.8248 47.1985 23.4519C45.1764 26.1298 47.4166 28.0386 49.0114 27.9377C49.3222 27.918 50.8275 27.5159 51.1078 27.3482C53.9726 25.6346 54.3889 24.0379 54.1871 20.9188C54.4594 20.7268 54.7319 20.5346 55.0042 20.3425C55.1817 20.5663 55.0579 20.2593 55.243 20.7881C55.8325 22.4728 54.8015 25.0097 56.9884 25.6463C57.5354 25.5582 58.0805 26.0284 59.1208 25.5166C59.1645 25.0008 58.6015 23.5282 58.5846 22.6553C58.5265 19.667 58.4218 14.8754 58.5866 12.1471C59.9932 11.8685 60.3269 11.8768 60.9912 11.3213C61.0265 9.98575 60.1394 9.92661 58.9838 9.91891C58.7735 9.25945 58.9152 8.65573 59.0384 8.05556C59.1534 7.49574 59.4719 6.82642 59.4111 6.36978C58.8335 6.18282 58.1741 5.97383 57.4854 5.97398C55.1482 5.97475 55.2367 6.38873 54.8646 10.1293C54.3279 10.1949 51.1479 9.74657 53.2206 12.7485C53.7686 12.6991 54.3167 12.6498 54.8647 12.6005C54.9548 14.3916 55.0449 16.1829 55.1349 17.9742C53.0389 18.9376 52.718 19.5036 51.1853 18.7648C50.5407 18.5083 49.8963 18.2518 49.2518 17.9954C47.8578 17.4054 47.4853 17.7572 47.7384 16.7801C48.7757 16.5491 49.8131 16.3181 50.8506 16.087C51.6613 16.0112 52.5495 16.1583 51.6094 14.4554C50.9688 13.2954 49.9882 13.403 48.9245 13.9669C47.1523 14.9066 46.5899 14.7697 45.4826 16.1239C44.4593 17.3754 44.887 17.5419 45.1002 18.8663C45.0412 19.1446 42.6046 21.4866 41.8454 21.4953C41.835 20.1867 41.8293 18.8714 41.8247 17.5625C41.8219 16.7909 42.0873 14.3601 41.9845 14.1702C41.7244 13.6866 37.8465 12.1183 37.5951 15.995C37.4898 17.6178 36.6768 20.6719 34.9317 20.7046C34.276 19.7925 34.3901 16.0098 34.5984 15.4127C34.7847 14.8788 36.0249 13.4311 33.1868 13.0716C32.2689 12.9555 31.6742 13.2835 31.317 13.9391C30.9347 14.6411 30.8348 17.9147 30.7749 18.9968C30.2332 19.9373 29.6915 20.8778 29.1496 21.8184C28.7809 22.3305 29.0603 22.3974 28.4146 22.4948C28.0067 21.2855 28.1799 18.8576 28.2972 17.5637C28.3878 16.5659 28.4132 14.9226 28.811 14.0442C28.8511 13.9558 30.3598 12.1517 26.8414 12.3364C25.3797 12.4131 25.4448 13.3073 25.2863 13.8447C23.3347 14.0533 22.6428 13.1904 20.3339 15.9972C19.3863 17.1491 18.6113 19.5854 18.5819 21.3436C18.5428 23.6893 18.6413 25.9952 21.2538 25.8429C22.337 25.7796 22.8471 25.1836 23.4788 24.488C24.2975 23.5862 24.6289 22.8627 25.156 22.7914C25.2558 22.9759 25.6967 25.6937 26.9213 26.1043C28.3024 26.5674 29.2298 25.534 30.0172 24.5071C30.7891 23.5001 30.9264 22.8262 31.4124 22.6337C31.8707 22.9648 32.564 24.8804 34.7145 24.1471C37.0178 23.3618 36.7994 22.1515 37.5385 22.0044C37.8103 22.4458 37.8427 24.3135 37.489 24.8214C37.3591 24.95 37.2292 25.0784 37.0991 25.207C35.0876 27.0833 33.2376 29.3947 32.3892 32.092C31.9015 33.6422 31.7182 35.7617 32.9156 37.0475C36.8269 41.2473 41.0993 31.2708 41.4701 27.3467ZM122 19.0872C122 18.8348 122 18.5823 122 18.3301C120.454 17.9768 120.649 18.043 119.473 18.662C119.218 18.7964 118.161 19.3165 117.89 19.2755C116.63 18.7718 115.369 18.2682 114.109 17.7644C113.856 17.6779 113.275 17.4927 113.089 17.3595C113.093 16.8099 113.257 16.7878 113.765 16.6428C116.514 15.8584 116.42 16.6375 117.738 15.9177C117.77 15.1949 117.099 12.8609 114.956 13.7868C113.443 14.4409 109.182 16.0833 110.813 18.7062C111.11 19.1836 111.105 18.9915 111.362 19.2355C112.095 19.9302 114.205 20.5016 115.406 20.6479C115.381 21.3828 113.669 22.0078 112.369 23.9566C111.936 24.6056 111.826 25.8095 112.212 26.6005C113.132 28.4902 115.484 28.0988 116.854 27.2667C117.587 26.8213 118.026 26.7028 118.529 25.9552C120.304 23.3173 119.599 22.3228 119.645 20.7945C120.509 20.3057 121.728 19.1964 122 19.0872ZM114.386 25.7091C115.408 25.6855 116.927 24.0655 117.055 23.1455C116.498 23.1941 114.13 24.4724 114.386 25.7091ZM0 15.0703C0 15.4278 0 15.7852 0 16.1425C0.504793 16.3768 0.0340223 16.4832 0.520803 17.0455C1.51315 18.1921 2.44637 16.5083 3.25968 16.395C3.14206 19.4953 3.25629 22.4745 2.51857 25.4813C3.83744 26.2925 5.47344 25.3188 5.69758 24.8084C6.52443 22.9245 6.26734 15.8773 7.08557 14.626C7.31772 14.3297 7.77679 14.2986 8.33408 14.0294C8.9414 13.7694 9.54872 13.5095 10.156 13.2495C10.7007 13.0079 11.0037 12.7428 12.1865 12.6584C12.2388 14.5992 12.3185 17.6719 12.1189 19.4682C11.9859 20.6658 11.9301 23.504 11.7677 24.2109C11.6698 24.6364 11.4212 25.23 11.7689 25.6076C12.2608 26.047 13.3332 25.7112 13.8029 25.4987C14.3356 25.2575 14.7024 24.8262 14.8693 24.2429C15.1467 21.3011 15.527 18.5186 15.8533 15.6043C15.9191 14.6516 15.9822 11.7157 16.2665 11.1553C16.8592 10.3718 19.297 10.8559 18.2281 8.45598C17.0078 8.29289 17.1097 8.71641 16.2206 8.63848C16.0633 7.04758 16.3593 5.22673 16.0014 3.77674C15.6847 2.49401 15.8789 0.568746 14.728 0.110263C13.3443 0.00045513 12.3059 -0.186819 11.2135 0.484042C11.2037 1.18293 11.3168 1.09022 11.5152 1.60384C11.9101 2.62568 12.2282 9.17459 12.1209 10.1314C11.1702 10.3306 10.618 10.6814 9.6725 10.9109C8.88952 11.1008 7.96661 11.6664 7.18363 11.6652C7.16547 11.1884 7.28478 10.6437 7.28539 10.0007C7.28693 8.35418 7.04616 6.68704 6.78522 5.16082C6.4587 3.2508 6.12124 3.22863 5.24452 3.07185C4.36625 2.91445 3.02922 2.94109 2.27518 3.34968C2.05704 4.29791 2.65482 3.77012 2.74365 5.56124C2.76196 5.93071 2.76289 6.48067 2.8257 6.83058C3.16669 8.73535 3.22858 11.1893 3.16038 13.1663C2.45253 13.4659 0.938769 13.9849 0.536814 14.4608C0.171651 14.8934 0.486627 14.868 0 15.0703ZM81.7644 9.67789C81.6925 11.3361 81.6891 13.0327 81.6805 14.6938C81.6583 19.0287 82.6225 18.5691 78.9953 22.1341C78.588 22.5344 78.0136 22.9882 77.5619 23.3175C74.4798 25.5645 75.9416 20.329 76.403 19.0265C76.6604 18.2999 76.888 17.6418 77.1962 16.9335C77.4323 16.3908 77.8571 15.6599 78.5834 15.6034C78.6145 16.3314 78.5812 16.9779 78.8637 17.5836C79.1036 18.0981 79.6986 18.4462 80.2294 18.0253C82.1374 16.5125 80.9254 11.947 77.5541 13.0234C75.1745 13.7834 74.201 16.0053 73.3535 18.0681C72.8893 19.1979 72.0623 21.2242 71.3148 22.0161C70.9594 22.3925 71.1979 22.2176 70.7756 22.3157C70.5695 22.018 70.5239 21.86 70.4935 21.3462C70.3669 19.2093 70.5005 17.2542 70.791 15.1087C70.9507 13.9301 72.7134 12.1479 69.0719 12.3385C67.7744 12.4063 67.907 13.0414 67.3868 13.7982C65.6369 13.8977 65.2212 13.6187 63.9285 14.6217C63.6582 14.8315 63.6242 14.7965 63.3846 14.9909C62.1954 15.9551 60.8884 19.0254 60.6992 21.2421C60.56 22.8721 60.9826 25.8053 63.0795 25.8463C65.418 25.8921 65.9686 23.9805 67.2564 22.7638C67.6842 23.404 67.8876 25.9955 69.4714 26.1742C70.5041 26.2908 71.0152 25.9051 71.4699 25.4322C71.7949 25.0941 72.4783 24.0991 72.8612 23.9753C73.7436 25.3375 73.591 26.5246 76.2559 26.4662C78.1443 26.4248 79.8057 24.585 80.8898 23.2522C81.0418 23.0654 81.1737 22.91 81.3704 22.6916C81.7234 22.2998 81.6121 22.374 82.035 22.1926C82.4664 23.0606 82.4128 24.3598 83.0535 25.4984C83.5813 26.4362 85.5079 26.3803 86.2827 25.6469C86.1845 24.5656 85.9296 25.9646 85.6633 23.6982C85.5809 22.9967 85.1943 22.093 85.5587 21.4038C85.9043 21.9379 86.3061 22.5618 86.7175 23.1301C88.0334 24.948 90.1436 27.4189 91.6084 24.1932C92.2811 24.6372 92.3966 25.5997 93.2339 26.122C93.9447 26.5654 95.5454 26.6401 96.3643 26.1954C96.9754 25.8636 97.8891 25.1539 98.4461 24.6383C99.0991 24.0449 99.7523 23.4515 100.405 22.8581C100.353 23.8233 100.3 24.7886 100.247 25.7538C101.357 25.9603 103.192 25.811 103.627 25.0168C103.961 24.408 103.381 19.6907 106.182 16.0951C106.449 15.7526 106.293 15.76 106.88 15.7149C107.081 16.0175 106.993 15.7677 107.071 16.254C107.196 17.0224 106.861 17.713 107.19 18.0367C107.79 18.5224 109.994 18.2286 110.164 17.1746C110.665 14.062 108.137 12.0268 106.245 13.7967C105.528 14.4682 105.013 15.5165 104.383 16.159C104.248 15.0685 104.267 13.8849 103.311 13.4586C102.307 13.0111 100.989 13.3843 100.381 13.9827C100.242 14.8609 100.406 15.0797 100.536 15.7983C100.645 16.403 100.596 17.0706 100.604 17.6939C100.617 18.6338 100.624 19.096 99.8432 20.0524C99.6866 20.2441 99.5564 20.3621 99.4072 20.5084C98.2455 21.6487 96.4283 23.9381 94.5749 23.8956C94.5566 23.1572 94.5137 22.3455 94.6365 21.6465C94.788 20.7841 94.9653 20.9274 95.7245 20.6056C97.9142 19.6773 100.893 16.9833 99.6897 14.3443C99.565 14.0707 98.9532 13.4395 98.7013 13.3188C97.4531 12.8478 96.5098 12.7434 95.0891 13.613C91.9971 15.5059 91.5608 20.0976 91.5095 23.3086C90.0219 23.4171 89.317 22.094 88.6604 21.3166C88.3047 20.8954 88.0348 20.4572 87.6618 19.963C85.9939 17.7538 86.7209 18.8015 87.8907 17.3492C88.2609 16.8893 88.5539 16.4224 88.9117 16.0127C91.407 13.1565 89.59 12.8485 88.987 13.0772C87.8645 13.5021 86.6317 15.9768 85.3629 16.0169C85.3986 13.8489 85.4343 11.6809 85.4702 9.5131C85.6482 8.50742 85.8264 7.50175 86.0045 6.49622C85.8686 5.31621 83.1333 6.04359 82.5637 6.40074C81.6831 6.95286 82.1616 8.51512 81.7644 9.67789ZM95.7807 17.8305C96.7718 17.7921 97.9641 16.7031 97.7904 15.7021C97.3708 15.5165 97.4916 15.4423 97.1055 15.5954C96.4492 15.8555 95.7551 16.9545 95.7807 17.8305ZM63.6069 23.0019C64.3674 22.7837 66.3547 19.144 66.7807 18.3925C67.0798 17.8645 67.6085 17.2061 67.0336 16.6009C65.6832 15.1785 62.7847 21.6631 63.6069 23.0019ZM48.8453 25.5474C49.6664 25.8797 51.3683 23.9255 51.4459 23.0846C50.9089 23.1447 48.3994 24.7068 48.8453 25.5474ZM34.8065 35.6821C36.1585 35.748 36.465 34.0725 36.733 33.0539C37.068 31.7801 37.237 30.3056 37.2306 28.8204C36.6551 29.0272 36.7912 28.9111 36.4497 29.3813C36.1709 29.8866 35.8923 30.3917 35.6135 30.897C35.464 31.1716 35.2745 31.4628 35.1654 31.7362C34.6807 32.9513 34.1295 34.4417 34.8065 35.6821ZM21.3694 22.9205C22.1077 22.7201 23.2335 20.7004 23.6487 19.9703C24.005 19.3441 24.3022 18.875 24.5854 18.291C25.025 17.3843 25.2387 17.1893 24.5042 16.3996C22.5933 16.5983 21.174 20.7762 21.3694 22.9205Z" fill="#F80505"/>
</svg>
